<?xml version="1.0" standalone="no"?>
<!DOCTYPE svg PUBLIC "-//W3C//DTD SVG 20010904//EN"
 "http://www.w3.org/TR/2001/REC-SVG-20010904/DTD/svg10.dtd">
<svg version="1.0" xmlns="http://www.w3.org/2000/svg"
 width="330.000000pt" height="283.000000pt" viewBox="0 0 330.000000 283.000000"
 preserveAspectRatio="xMidYMid meet">
<metadata>
Created by potrace 1.16, written by Peter Selinger 2001-2019
</metadata>
<g transform="translate(0.000000,283.000000) scale(0.059459,-0.108846)"
fill="#000000" stroke="none">
<path d="M1134 2171 c-435 -118 -645 -595 -441 -996 61 -121 181 -237 307
-299 158 -77 345 -96 500 -50 178 52 350 195 428 354 92 190 103 364 36 552
-75 208 -227 354 -444 428 -95 32 -288 38 -386 11z m336 -141 c289 -84 463
-406 375 -693 -44 -145 -149 -268 -286 -336 -173 -85 -336 -83 -511 5 -172 87
-298 291 -298 484 0 377 358 645 720 540z"/>
<path d="M1223 1805 c-67 -34 -90 -67 -74 -110 6 -17 11 -58 12 -91 1 -63 2
-63 19 3 14 54 63 83 142 83 76 0 110 -24 127 -88 16 -63 30 -67 33 -9 6 127
-14 181 -72 197 -19 6 -44 17 -54 25 -29 22 -75 18 -133 -10z"/>
<path d="M2090 1602 l-38 -38 0 -89 c0 -50 2 -98 5 -108 6 -24 78 -57 123 -57
19 0 54 9 76 19 48 22 52 33 53 155 0 79 0 80 -38 118 -35 34 -44 38 -91 38
-47 0 -56 -4 -90 -38z m121 -66 c17 -14 24 -26 17 -28 -7 -3 -5 -7 5 -11 9 -3
17 -2 17 3 0 16 30 11 36 -5 10 -25 -16 -75 -47 -90 -60 -31 -136 -10 -159 44
-18 45 -7 64 32 57 18 -3 28 -3 21 0 -8 4 -3 13 15 29 15 14 29 25 31 25 2 0
16 -11 32 -24z"/>
<path d="M487 1614 c-3 -3 -30 -7 -61 -7 -30 -1 -61 -8 -67 -14 -14 -14 -20
-115 -7 -107 4 3 8 11 8 18 0 9 20 15 58 19 31 3 66 9 78 12 17 5 26 -2 47
-37 l27 -43 -2 73 c-2 61 -5 72 -19 72 -10 0 -21 5 -24 10 -7 11 -28 13 -38 4z"/>
<path d="M1845 854 c-49 -41 -92 -79 -93 -85 -2 -5 38 -60 90 -122 52 -61 161
-192 242 -290 158 -191 187 -215 252 -202 78 14 130 102 102 171 -13 33 -482
604 -496 604 -4 0 -47 -34 -97 -76z"/>
<path d="M4829 203 c-1 -68 -2 -129 -3 -135 -1 -9 21 -14 72 -16 l72 -3 -1
128 c-1 70 -3 120 -6 111 -5 -20 -14 -23 -28 -9 -6 6 -28 11 -50 13 -23 2 -43
9 -47 18 -4 8 -8 -40 -9 -107z"/>
</g>
</svg>
