<?xml version="1.0" standalone="no"?>
<!DOCTYPE svg PUBLIC "-//W3C//DTD SVG 20010904//EN"
 "http://www.w3.org/TR/2001/REC-SVG-20010904/DTD/svg10.dtd">
<svg version="1.0" xmlns="http://www.w3.org/2000/svg"
 width="555.000000pt" height="260.000000pt" viewBox="0 0 555.000000 260.000000"
 preserveAspectRatio="xMidYMid meet">
<metadata>
Created by potrace 1.16, written by Peter Selinger 2001-2019
</metadata>
<g transform="translate(0.000000,260.000000) scale(0.100000,-0.100000)"
fill="#000000" stroke="none">
<path d="M1134 2171 c-432 -117 -646 -597 -443 -991 72 -139 169 -234 314
-306 265 -131 569 -84 785 123 161 153 244 388 210 593 -47 280 -215 480 -480
570 -95 32 -288 38 -386 11z m336 -141 c299 -88 472 -424 367 -713 -54 -148
-143 -250 -279 -316 -172 -85 -335 -83 -510 5 -172 87 -298 291 -298 484 0
376 359 645 720 540z"/>
<path d="M1223 1805 c-67 -34 -90 -67 -74 -110 6 -17 11 -58 12 -91 1 -63 2
-63 19 3 14 54 63 83 142 83 76 0 110 -24 127 -88 16 -63 30 -67 33 -9 6 127
-14 181 -72 197 -19 6 -44 17 -54 25 -29 22 -75 18 -133 -10z"/>
<path d="M1228 1609 c-28 -16 -21 -30 7 -17 14 6 25 15 25 20 0 11 -11 10 -32
-3z"/>
<path d="M1376 1612 c-3 -5 9 -13 25 -19 22 -8 29 -9 27 -1 -5 14 -46 29 -52
20z"/>
<path d="M1240 1550 c0 -13 5 -20 13 -17 6 2 12 10 12 17 0 7 -6 15 -12 18 -8
2 -13 -5 -13 -18z"/>
<path d="M1375 1560 c-7 -12 2 -30 16 -30 12 0 12 27 0 35 -5 3 -12 1 -16 -5z"/>
<path d="M1298 1463 c6 -2 18 -2 25 0 6 3 1 5 -13 5 -14 0 -19 -2 -12 -5z"/>
<path d="M2090 1602 l-38 -38 0 -89 c0 -50 2 -98 5 -108 6 -24 78 -57 123 -57
19 0 54 9 76 19 48 22 52 33 53 155 0 79 0 80 -38 118 -35 34 -44 38 -91 38
-47 0 -56 -4 -90 -38z m121 -66 c17 -14 24 -26 17 -28 -7 -3 -5 -7 5 -11 9 -3
17 -2 17 3 0 16 30 11 36 -5 10 -25 -16 -75 -47 -90 -60 -31 -136 -10 -159 44
-18 45 -7 64 32 57 18 -3 28 -3 21 0 -8 4 -3 13 15 29 15 14 29 25 31 25 2 0
16 -11 32 -24z"/>
<path d="M2130 1474 c0 -8 5 -12 10 -9 6 4 8 11 5 16 -9 14 -15 11 -15 -7z"/>
<path d="M2216 1481 c-4 -5 -2 -12 3 -15 5 -4 12 -2 15 3 4 5 2 12 -3 15 -5 4
-12 2 -15 -3z"/>
<path d="M487 1614 c-3 -3 -30 -7 -61 -7 -30 -1 -61 -8 -67 -14 -7 -7 -13 -38
-14 -70 -1 -48 0 -53 8 -32 9 23 17 27 66 32 31 3 65 9 77 12 17 5 26 -2 47
-37 l27 -43 -2 73 c-2 61 -5 72 -19 72 -10 0 -21 5 -24 10 -7 11 -28 13 -38 4z"/>
<path d="M385 1490 c-8 -13 5 -13 25 0 13 8 13 10 -2 10 -9 0 -20 -4 -23 -10z"/>
<path d="M500 1496 c0 -2 7 -6 15 -10 8 -3 15 -1 15 4 0 6 -7 10 -15 10 -8 0
-15 -2 -15 -4z"/>
<path d="M405 1461 c-3 -5 -1 -12 5 -16 5 -3 10 1 10 9 0 18 -6 21 -15 7z"/>
<path d="M495 1461 c-3 -5 -1 -12 5 -16 5 -3 10 1 10 9 0 18 -6 21 -15 7z"/>
<path d="M1845 854 c-49 -41 -92 -79 -93 -85 -2 -5 38 -60 90 -122 52 -61 157
-188 235 -282 161 -195 167 -200 210 -210 97 -20 189 85 151 173 -14 32 -484
602 -496 602 -4 0 -47 -34 -97 -76z"/>
<path d="M4520 561 c0 -20 13 -41 25 -41 15 0 28 27 19 41 -7 12 -44 12 -44 0z
m38 -13 c-2 -5 -8 -9 -13 -9 -5 0 -11 4 -13 9 -1 5 4 9 13 9 9 0 14 -4 13 -9z"/>
<path d="M4503 503 c-20 -8 -15 -17 16 -31 24 -11 33 -11 50 0 15 9 17 15 9
25 -9 11 -13 10 -24 -4 -12 -17 -13 -17 -19 0 -7 18 -11 19 -32 10z"/>
<path d="M2873 425 c0 -27 2 -38 4 -22 2 15 2 37 0 50 -2 12 -4 0 -4 -28z"/>
<path d="M2820 413 c0 -18 5 -33 10 -33 13 0 13 30 0 50 -7 11 -10 7 -10 -17z"/>
<path d="M3195 410 c3 -5 8 -10 11 -10 2 0 4 5 4 10 0 6 -5 10 -11 10 -5 0 -7
-4 -4 -10z"/>
<path d="M4258 413 c7 -3 16 -2 19 1 4 3 -2 6 -13 5 -11 0 -14 -3 -6 -6z"/>
<path d="M4320 400 c0 -14 5 -18 17 -13 11 4 13 8 5 11 -7 2 -10 8 -6 13 3 5
0 9 -5 9 -6 0 -11 -9 -11 -20z"/>
<path d="M3180 377 c0 -16 24 -17 37 -1 4 5 4 6 -1 2 -5 -4 -15 -3 -23 3 -10
9 -13 8 -13 -4z"/>
<path d="M2820 290 c0 -27 5 -50 10 -50 6 0 10 23 10 50 0 28 -4 50 -10 50 -5
0 -10 -22 -10 -50z"/>
<path d="M2873 290 c0 -30 2 -43 4 -27 2 15 2 39 0 55 -2 15 -4 2 -4 -28z"/>
<path d="M3180 257 l0 -87 63 1 c34 1 51 3 37 6 -14 2 -39 6 -56 8 l-31 5 -2
72 c-3 103 -11 98 -11 -5z"/>
<path d="M5211 318 c-1 -16 4 -28 9 -28 12 0 12 8 0 35 -8 18 -9 17 -9 -7z"/>
<path d="M5274 315 c-1 -14 2 -25 7 -25 5 0 9 11 9 25 0 33 -15 33 -16 0z"/>
<path d="M5152 310 c0 -14 2 -19 5 -12 2 6 2 18 0 25 -3 6 -5 1 -5 -13z"/>
<path d="M4829 186 c-2 -65 -1 -122 2 -127 3 -5 35 -8 72 -6 l67 2 -1 110 c-1
61 -3 102 -6 93 -5 -21 -29 -23 -83 -6 -26 8 -40 19 -43 33 -2 11 -6 -33 -8
-99z m106 -15 c0 -8 -6 -16 -14 -19 -8 -3 -11 0 -7 7 5 8 -5 10 -33 8 -41 -3
-56 7 -23 16 33 9 77 2 77 -12z"/>
<path d="M4050 275 c0 -8 7 -15 15 -15 8 0 15 7 15 15 0 8 -7 15 -15 15 -8 0
-15 -7 -15 -15z"/>
<path d="M4122 274 c4 -21 22 -23 26 -1 2 10 -3 17 -13 17 -10 0 -15 -6 -13
-16z"/>
<path d="M4190 269 c0 -11 5 -17 10 -14 6 3 10 13 10 21 0 8 -4 14 -10 14 -5
0 -10 -9 -10 -21z"/>
<path d="M4252 273 c5 -25 28 -28 28 -4 0 12 -6 21 -16 21 -9 0 -14 -7 -12
-17z"/>
<path d="M4320 269 c0 -24 23 -21 28 4 2 10 -3 17 -12 17 -10 0 -16 -9 -16
-21z"/>
<path d="M3908 193 c-4 -37 -4 -37 -15 -13 -9 18 -12 20 -12 8 -1 -19 -17 -25
-23 -9 -1 5 -9 3 -16 -5 -8 -9 -9 -14 -2 -14 6 0 8 -5 5 -10 -4 -6 -8 -23 -11
-38 -3 -15 -8 -36 -11 -47 -5 -18 -4 -18 11 -6 9 8 15 19 12 26 -3 8 9 11 35
11 l39 -1 0 68 c0 73 -7 89 -12 30z"/>
<path d="M5080 180 c0 -22 5 -40 10 -40 6 0 10 18 10 40 0 22 -4 40 -10 40 -5
0 -10 -18 -10 -40z"/>
<path d="M5144 185 c0 -19 4 -35 8 -35 4 0 8 16 8 35 0 19 -4 35 -8 35 -4 0
-8 -16 -8 -35z"/>
<path d="M5210 180 c0 -22 5 -40 10 -40 6 0 10 18 10 40 0 22 -4 40 -10 40 -5
0 -10 -18 -10 -40z"/>
<path d="M5270 180 c0 -22 5 -40 10 -40 6 0 10 18 10 40 0 22 -4 40 -10 40 -5
0 -10 -18 -10 -40z"/>
<path d="M2820 155 c0 -25 5 -45 10 -45 6 0 10 20 10 45 0 25 -4 45 -10 45 -5
0 -10 -20 -10 -45z"/>
<path d="M2873 155 c0 -27 2 -38 4 -22 2 15 2 37 0 50 -2 12 -4 0 -4 -28z"/>
<path d="M4050 145 c0 -8 7 -15 15 -15 8 0 15 7 15 15 0 8 -7 15 -15 15 -8 0
-15 -7 -15 -15z"/>
<path d="M4120 139 c0 -24 23 -21 28 4 2 10 -3 17 -12 17 -10 0 -16 -9 -16
-21z"/>
<path d="M4190 140 c0 -11 5 -20 10 -20 6 0 10 9 10 20 0 11 -4 20 -10 20 -5
0 -10 -9 -10 -20z"/>
<path d="M4252 143 c5 -25 28 -28 28 -4 0 12 -6 21 -16 21 -9 0 -14 -7 -12
-17z"/>
<path d="M4320 139 c0 -24 23 -21 28 4 2 10 -3 17 -12 17 -10 0 -16 -9 -16
-21z"/>
<path d="M3879 68 c-1 -7 -1 -19 0 -26 1 -7 -5 -15 -14 -18 -28 -11 -15 -24
26 -24 28 0 38 4 33 11 -4 7 -7 24 -8 38 -1 27 -35 44 -37 19z"/>
<path d="M5080 40 c0 -22 5 -40 10 -40 6 0 10 18 10 40 0 22 -4 40 -10 40 -5
0 -10 -18 -10 -40z"/>
<path d="M5145 70 c3 -5 8 -10 11 -10 2 0 4 5 4 10 0 6 -5 10 -11 10 -5 0 -7
-4 -4 -10z"/>
<path d="M5210 40 c0 -22 5 -40 10 -40 6 0 10 18 10 40 0 22 -4 40 -10 40 -5
0 -10 -18 -10 -40z"/>
<path d="M5270 40 c0 -22 5 -40 10 -40 6 0 10 18 10 40 0 22 -4 40 -10 40 -5
0 -10 -18 -10 -40z"/>
<path d="M2820 35 c0 -19 5 -35 10 -35 6 0 10 16 10 35 0 19 -4 35 -10 35 -5
0 -10 -16 -10 -35z"/>
<path d="M2868 35 c2 -19 6 -35 8 -35 2 0 4 16 4 35 0 19 -4 35 -8 35 -4 0 -6
-16 -4 -35z"/>
<path d="M5147 43 c-11 -10 -8 -43 3 -43 6 0 10 11 10 25 0 26 -2 29 -13 18z"/>
<path d="M3583 33 c37 -2 97 -2 135 0 37 2 6 3 -68 3 -74 0 -105 -1 -67 -3z"/>
<path d="M4050 15 c0 -8 7 -15 15 -15 8 0 15 7 15 15 0 8 -7 15 -15 15 -8 0
-15 -7 -15 -15z"/>
<path d="M4120 15 c0 -8 7 -15 15 -15 8 0 15 7 15 15 0 8 -7 15 -15 15 -8 0
-15 -7 -15 -15z"/>
<path d="M4190 15 c0 -8 5 -15 10 -15 6 0 10 7 10 15 0 8 -4 15 -10 15 -5 0
-10 -7 -10 -15z"/>
<path d="M4250 15 c0 -8 7 -15 15 -15 8 0 15 7 15 15 0 8 -7 15 -15 15 -8 0
-15 -7 -15 -15z"/>
<path d="M4320 15 c0 -8 7 -15 15 -15 8 0 15 7 15 15 0 8 -7 15 -15 15 -8 0
-15 -7 -15 -15z"/>
<path d="M1415 10 c-4 -6 6 -10 22 -10 22 0 25 2 13 10 -19 12 -27 12 -35 0z"/>
<path d="M968 3 c6 -2 18 -2 25 0 6 3 1 5 -13 5 -14 0 -19 -2 -12 -5z"/>
</g>
</svg>
