<?xml version="1.0" encoding="iso-8859-1"?>
<!-- Generator: Adobe Illustrator 16.0.0, SVG Export Plug-In . SVG Version: 6.00 Build 0)  -->
<!DOCTYPE svg PUBLIC "-//W3C//DTD SVG 1.1//EN" "http://www.w3.org/Graphics/SVG/1.1/DTD/svg11.dtd">
<svg version="1.1" id="Capa_1" xmlns="http://www.w3.org/2000/svg" xmlns:xlink="http://www.w3.org/1999/xlink" x="0px" y="0px"
	 width="977.733px" height="977.733px" viewBox="0 0 977.733 977.733" style="enable-background:new 0 0 977.733 977.733;"
	 xml:space="preserve">
<g>
	<g>
		<g>
			<path d="M466.647,173.195c-37.811,0-62.039,32.671-62.039,86.268c0,53.963,24.229,88.47,62.039,88.47
				c37.812,0,62.039-34.507,62.039-88.47C528.688,205.866,504.459,173.195,466.647,173.195z"/>
			<path d="M741.604,204.765c0-22.026-15.784-31.203-46.987-31.203h-31.203v66.444h30.469
				C727.288,240.006,741.604,227.158,741.604,204.765z"/>
			<path d="M948.044,515.337V96.722c0-44.183-35.815-80-80-80H109.689c-44.183,0-80,35.817-80,80v460.589
				c2.229-11.306,7.2-21.999,14.561-30.994c10.256-12.535,24.647-21.202,40.523-24.403c43.117-8.698,99.986-20.01,126.049-24.486
				c2.815-0.483,5.684-0.729,8.527-0.729c27.614,0,50.079,22.486,50.079,50.125v47.958h98.898v-3.915
				c0-16.193,5.648-32.016,15.902-44.547c10.256-12.534,24.647-21.202,40.522-24.402c43.115-8.699,99.981-20.01,126.049-24.488
				c2.815-0.482,5.686-0.729,8.527-0.729c27.614,0,50.079,22.486,50.079,50.125v47.958h98.897v-3.915
				c0-16.193,5.647-32.016,15.901-44.547c10.256-12.534,24.647-21.201,40.522-24.402c43.117-8.699,99.985-20.011,126.05-24.487
				c2.813-0.483,5.684-0.729,8.526-0.729C922.972,476.696,942.841,493.217,948.044,515.337z M313.57,305.349
				c0,43.685-21.292,79.66-71.583,79.66c-33.406,0-56.533-13.95-71.584-40.747l29.367-21.659
				c9.545,17.62,22.76,25.329,37.443,25.329c22.394,0,33.773-12.113,33.773-46.254V140.523h42.583L313.57,305.349L313.57,305.349z
				 M466.647,385.009c-62.406,0-105.724-47.723-105.724-125.547c0-77.458,43.316-123.345,105.724-123.345
				c62.773,0,106.092,45.887,106.092,123.345C572.739,337.287,529.421,385.009,466.647,385.009z M703.794,380.604H620.83v-240.08
				h76.725c49.559,0,85.899,15.051,85.899,59.102c0,22.76-13.216,44.786-41.115,52.128v1.468
				c34.509,5.874,53.597,24.596,53.597,56.9C795.935,358.211,756.655,380.604,703.794,380.604z"/>
			<path d="M699.389,270.475h-35.977v77.09h35.977c35.24,0,55.063-13.215,55.063-40.381
				C754.453,282.222,735.364,270.475,699.389,270.475z"/>
			<path d="M937.392,746.398H720.299c-22.279,0-40.341,18.062-40.341,40.342v160.662c0,7.518,6.094,13.609,13.609,13.609h270.557
				c7.518,0,13.609-6.094,13.609-13.609V786.74C977.733,764.459,959.671,746.398,937.392,746.398z"/>
			<path d="M895.857,506.993c-26.644,4.575-87.396,16.699-125.194,24.325c-18.825,3.8-32.357,20.341-32.357,39.545v3.915v48.278
				c0,50.004,40.536,90.539,90.539,90.539c50.005,0,90.54-40.535,90.54-90.539v-48.278V526.82c0-11.295-9.21-20.125-20.079-20.125
				C898.172,506.695,897.02,506.792,895.857,506.993z"/>
			<path d="M597.413,746.398H380.32c-22.28,0-40.342,18.062-40.342,40.342v160.662c0,7.518,6.093,13.609,13.609,13.609h270.558
				c7.517,0,13.608-6.094,13.608-13.609V786.74C637.754,764.459,619.693,746.398,597.413,746.398z"/>
			<path d="M555.878,506.993c-26.642,4.575-87.394,16.699-125.192,24.325c-18.825,3.8-32.358,20.341-32.358,39.545v3.915v48.278
				c0,50.004,40.536,90.539,90.54,90.539c50.004,0,90.54-40.535,90.54-90.539v-48.278V526.82c0-11.295-9.211-20.125-20.08-20.125
				C558.193,506.695,557.04,506.792,555.878,506.993z"/>
			<path d="M257.434,746.398H40.342C18.062,746.398,0,764.461,0,786.74v160.662c0,7.518,6.093,13.609,13.609,13.609h270.557
				c7.516,0,13.609-6.094,13.609-13.609V786.74C297.776,764.459,279.714,746.398,257.434,746.398z"/>
			<path d="M215.9,506.993c-26.642,4.575-87.394,16.699-125.194,24.325c-18.824,3.8-32.358,20.341-32.358,39.545v3.915v48.278
				c0,50.004,40.536,90.539,90.54,90.539c50.004,0,90.54-40.535,90.54-90.539v-48.278V526.82c0-11.295-9.21-20.125-20.08-20.125
				C218.214,506.695,217.061,506.792,215.9,506.993z"/>
		</g>
	</g>
</g>
<g>
</g>
<g>
</g>
<g>
</g>
<g>
</g>
<g>
</g>
<g>
</g>
<g>
</g>
<g>
</g>
<g>
</g>
<g>
</g>
<g>
</g>
<g>
</g>
<g>
</g>
<g>
</g>
<g>
</g>
</svg>
